<?xml version="1.0" encoding="utf-8"?>
<!-- Generator: Adobe Illustrator 21.1.0, SVG Export Plug-In . SVG Version: 6.00 Build 0)  -->
<svg version="1.1" id="Camada_1" xmlns="http://www.w3.org/2000/svg" xmlns:xlink="http://www.w3.org/1999/xlink" x="0px" y="0px"
	 viewBox="0 0 730 216" style="enable-background:new 0 0 730 216;" xml:space="preserve">
<style type="text/css">
	.st0{fill:#CCCCCC;}
</style>
<g>
	<path class="st0" d="M213.5,17.4h-41c-1.9,0-3.5,1.6-3.5,3.5v92.5c0,6.6-5.4,12-12,12h-52c-6.5,0-12.8-2.1-18-6
		c-7.6-5.7-12-14.6-12-24V20.9c0-1.9-1.6-3.5-3.5-3.5h-44c-1.9,0-3.5,1.6-3.5,3.5v73c0,22.8,12.5,44,32.7,54.6
		c0.2,0.1,0.5,0.2,0.7,0.4c8.6,4.4,18.1,6.5,27.7,6.5h115.4c9.1,0,16.5-7.4,16.5-16.5v-118C217,18.9,215.4,17.4,213.5,17.4z"/>
	<path class="st0" d="M373,17.4H244c-4.4,0-8,3.6-8,8v117.5c0,6.9,5.6,12.5,12.5,12.5h22c6.9,0,12.5-5.6,12.5-12.5V54.3
		c0-5.5,4.5-10,10.1-9.9l56.1,0.7c5.8,0.1,11.4,1.9,16.1,5.2l3.3,2.3C376.4,58,381,66.9,381,76.3v66.9c0,6.7,5.4,12.2,12.2,12.2
		h20.7c6.7,0,12.2-5.4,12.2-12.2V67.5c0-11.5-4.3-22.6-12.3-30.8C403.4,26.1,389.1,20.5,373,17.4z"/>
	<path class="st0" d="M486,17.4h-30c-4.4,0-8,3.6-8,8v122c0,4.4,3.6,8,8,8h30c4.4,0,8-3.6,8-8v-122C494,21,490.4,17.4,486,17.4z"/>
	<path class="st0" d="M587,44.4h111c4.4,0,8-3.6,8-8v-11c0-4.4-3.6-8-8-8H578c-21.4,1.6-37.1,9.9-48.1,23.6
		c-21.3,26.5-19.3,65,4.1,89.6c33.5,35.3,113.5,28.3,132,11.8v13l40-1v-68h-90l1,30h21c-19.1,17.5-50.9,13.2-71.1-5.8
		c-11.8-11-15.9-28.2-9.7-43C562.2,55.9,572.3,48.3,587,44.4z"/>
</g>
<g>
	<path class="st0" d="M143,173.4v16c0,6,2.7,8.6,6.4,8.6c4,0,6.6-2.6,6.6-8.6v-16h3v15.7c0,8.3-4.4,11.7-10.3,11.7
		c-5.6,0-9.7-3.2-9.7-11.5v-15.9H143z"/>
	<path class="st0" d="M168,200.4v-27h5l7.9,13.7c1.8,3.2,3.3,6,4.4,8.8h0.1c-0.3-3.6-0.4-6.9-0.4-11.1v-11.3h3v27h-4.7l-7.8-13.7
		c-1.7-3-3.4-6.1-4.6-9h-0.1c0.2,3.4,0.3,6.6,0.3,11.1v11.5H168z"/>
	<path class="st0" d="M200,173.4v27h-3v-27H200z"/>
	<path class="st0" d="M215.5,200.4l-8.8-27h3.9l4.1,13.1c1.1,3.6,2.1,6.8,2.8,9.9h0.1c0.7-3.1,1.9-6.4,3-9.9l4.5-13.1h3.8l-9.7,27
		H215.5z"/>
	<path class="st0" d="M248,187.4h-10v10h12v3h-15v-27h14v3h-11v8h10V187.4z"/>
	<path class="st0" d="M257,173.8c1.8-0.4,4.5-0.6,7-0.6c3.9,0,6.4,0.7,8.1,2.2c1.4,1.2,2.2,3,2.2,5.1c0,3.6-2.3,5.9-5.3,6.9v-0.2
		c2.1,0.7,3.3,2.7,3.9,5.6c0.9,3.9,1.5,6.5,2.1,7.6h-3.6c-0.4-0.8-1-3.2-1.8-6.6c-0.8-3.8-2.2-5.3-5.4-5.4H261v12h-4V173.8z
		 M261,186.4h3.6c3.7,0,6.1-2,6.1-5.1c0-3.5-2.5-5-6.2-5c-1.7,0-2.9,0.2-3.4,0.3v9.8H261z"/>
	<path class="st0" d="M281,196.2c1.6,1,3.8,1.8,6.2,1.8c3.6,0,5.6-1.9,5.6-4.6c0-2.5-1.4-4-5.1-5.4c-4.4-1.6-7.1-3.8-7.1-7.6
		c0-4.2,3.5-7.3,8.7-7.3c2.8,0,4.8,0.6,6,1.3l-1,2.8c-0.9-0.5-2.7-1.3-5.1-1.3c-3.7,0-5.1,2.2-5.1,4c0,2.5,1.6,3.8,5.4,5.2
		c4.6,1.8,6.9,4,6.9,7.9c0,4.2-3.1,7.8-9.4,7.8c-2.6,0-5.4-0.8-6.9-1.7L281,196.2z"/>
	<path class="st0" d="M307,173.4v27h-3v-27H307z"/>
	<path class="st0" d="M316,173.8c2.1-0.3,4.6-0.6,7.4-0.6c5,0,8.6,1.2,10.9,3.4c2.4,2.2,3.8,5.3,3.8,9.7s-1.4,8-3.9,10.5
		s-6.7,3.9-11.9,3.9c-2.5,0-4.6-0.1-6.3-0.3V173.8z M320,197.6c0.9,0.2,2.2,0.2,3.5,0.2c7.4,0,11.5-4.2,11.5-11.4
		c0-6.4-3.6-10.4-10.9-10.4c-1.8,0-3.2,0.2-4.1,0.4V197.6z"/>
	<path class="st0" d="M349.9,192.4l-2.6,8h-4l9.2-27h4.2l9.2,27h-4.2l-2.7-8H349.9z M358.5,189.4l-2.7-8c-0.6-1.8-1-3.4-1.4-5h-0.1
		c-0.4,1.6-0.9,3.3-1.4,5l-2.7,8H358.5z"/>
	<path class="st0" d="M373,173.8c2.1-0.3,4.6-0.6,7.4-0.6c5,0,8.6,1.2,10.9,3.4c2.4,2.2,3.8,5.3,3.8,9.7s-1.4,8-3.9,10.5
		s-6.7,3.9-11.9,3.9c-2.5,0-4.6-0.1-6.3-0.3V173.8z M376,197.6c0.9,0.2,2.2,0.2,3.5,0.2c7.4,0,11.5-4.2,11.5-11.4
		c0-6.4-3.6-10.4-10.9-10.4c-1.8,0-3.2,0.2-4.1,0.4V197.6z"/>
	<path class="st0" d="M416,187.4h-11v10h12v3h-15v-27h14v3h-11v8h11V187.4z"/>
	<path class="st0" d="M450,173.4v27h-3v-27H450z"/>
	<path class="st0" d="M480,199.2c-1.7,0.6-4.8,1.5-8.4,1.5c-4.1,0-7.4-1-10.1-3.6c-2.3-2.2-3.8-5.8-3.8-10c0-8,5.6-13.9,14.6-13.9
		c3.1,0,5.6,0.7,6.7,1.2l-0.8,2.8c-1.4-0.6-3.2-1.2-6-1.2c-6.6,0-10.8,4.1-10.8,10.8c0,6.8,4.1,10.9,10.4,10.9
		c2.3,0,5.2-0.7,5.2-0.7v-7.7h-6v-3h9L480,199.2L480,199.2z"/>
	<path class="st0" d="M491,173.4v16c0,6,2.7,8.6,6.4,8.6c4,0,6.6-2.6,6.6-8.6v-16h4v15.7c0,8.3-4.4,11.7-10.3,11.7
		c-5.6,0-9.7-3.2-9.7-11.5v-15.9H491z"/>
	<path class="st0" d="M519.9,192.4l-2.6,8h-4l9.2-27h4.2l9.2,27h-4.2l-2.7-8H519.9z M528.6,189.4l-2.7-8c-0.6-1.8-1-3.4-1.4-5h-0.1
		c-0.4,1.6-0.9,3.3-1.4,5l-2.7,8H528.6z"/>
	<path class="st0" d="M560.8,199.5c-1.3,0.6-3.8,1.3-7.1,1.3l-0.9,1.6c1.5,0.3,2.8,1.4,2.8,3c0,2.3-2,3.2-4.1,3.2
		c-1,0-2.2-0.3-2.8-0.7l0.6-1.8c0.6,0.3,1.4,0.5,2.2,0.5c0.9,0,1.7-0.4,1.7-1.2c0-1.1-1.2-1.5-3.1-1.7l1.7-3.1
		c-6.6-0.8-11.3-5.5-11.3-13.5c0-8.4,5.7-14.2,14.1-14.2c3.4,0,5.5,0.7,6.4,1.2l-1,2.9c-1.3-0.6-3.2-1.1-5.4-1.1
		c-6.3,0-10.5,4-10.5,11.1c0,6.6,3.8,10.8,10.4,10.8c2.1,0,4.3-0.4,5.7-1.1L560.8,199.5z"/>
	<path class="st0" d="M571,173.4v16c0,6,2.7,8.6,6.4,8.6c4,0,6.6-2.6,6.6-8.6v-16h4v15.7c0,8.3-4.4,11.7-10.3,11.7
		c-5.6,0-9.7-3.2-9.7-11.5v-15.9H571z"/>
</g>
</svg>
