<?xml version="1.0" encoding="iso-8859-1"?>
<!-- Generator: Adobe Illustrator 16.0.0, SVG Export Plug-In . SVG Version: 6.00 Build 0)  -->
<!DOCTYPE svg PUBLIC "-//W3C//DTD SVG 1.1//EN" "http://www.w3.org/Graphics/SVG/1.1/DTD/svg11.dtd">
<svg xmlns="http://www.w3.org/2000/svg" xmlns:xlink="http://www.w3.org/1999/xlink" version="1.1" id="Capa_1" x="0px" y="0px" width="512px" height="512px" viewBox="0 0 31.312 31.312" style="enable-background:new 0 0 31.312 31.312;" xml:space="preserve">
<g>
	<g>
		<polygon points="2.931,0.463 2.931,3.416 4.221,3.018 4.221,1.753 30.023,1.753 30.023,18.201 9.491,18.201 9.424,19.49     31.312,19.49 31.312,0.463   " fill="#2f348d"/>
		<g>
			<circle cx="4.984" cy="7.526" r="3.821" fill="#2f348d"/>
			<polygon points="8.227,29.104 8.227,22.302 8.227,21.661 8.227,20.791 8.47,20.791 8.825,13.885 15.416,10.471 14.55,8.801      8.524,11.922 6.374,11.922 4.917,13.611 3.508,11.922 0.412,12.483 0.214,19.365 1.526,19.365 1.597,20.791 1.797,20.791      1.797,21.661 1.797,22.302 1.797,29.104 1.534,29.104 0,29.438 0,30.85 1.306,30.85 2.83,30.6 2.844,30.85 4.531,30.85      4.531,29.275 4.531,29.104 4.531,22.302 5.492,22.302 5.492,29.104 5.492,29.275 5.492,30.85 7.181,30.85 7.195,30.6      8.718,30.85 10.024,30.85 10.024,29.438 8.491,29.104    " fill="#2f348d"/>
		</g>
		<rect x="11.039" y="6.235" width="16.523" height="0.483" fill="#2f348d"/>
		<rect x="11.039" y="4.542" width="16.523" height="0.484" fill="#2f348d"/>
		<rect x="11.039" y="7.887" width="16.523" height="0.484" fill="#2f348d"/>
		<polygon points="27.562,9.459 15.535,9.459 15.786,9.942 27.562,9.942   " fill="#2f348d"/>
		<polygon points="14.427,11.594 27.562,11.594 27.562,11.111 15.423,11.111   " fill="#2f348d"/>
		<polygon points="11.039,13.255 11.039,13.279 27.562,13.279 27.562,12.796 11.863,12.796   " fill="#2f348d"/>
		<rect x="23.719" y="15.145" width="5.051" height="1.878" fill="#2f348d"/>
	</g>
</g>
<g>
</g>
<g>
</g>
<g>
</g>
<g>
</g>
<g>
</g>
<g>
</g>
<g>
</g>
<g>
</g>
<g>
</g>
<g>
</g>
<g>
</g>
<g>
</g>
<g>
</g>
<g>
</g>
<g>
</g>
</svg>
