<?xml version="1.0" encoding="iso-8859-1"?>
<!-- Generator: Adobe Illustrator 19.0.0, SVG Export Plug-In . SVG Version: 6.00 Build 0)  -->
<svg version="1.1" id="Layer_1" xmlns="http://www.w3.org/2000/svg" xmlns:xlink="http://www.w3.org/1999/xlink" x="0px" y="0px"
	 viewBox="0 0 512 512" style="enable-background:new 0 0 512 512;" xml:space="preserve">
<rect x="130.542" y="170.881" style="fill:#1C2223;" width="250.909" height="219.019"/>
<g>
	<path style="fill:#F4C49D;" d="M134.08,147.998c-22.218,0-40.228,18.01-40.228,40.228l0,0c0,22.218,18.01,40.227,40.228,40.227
		h18.461v-80.455H134.08z"/>
	<path style="fill:#F4C49D;" d="M377.92,147.998c22.218,0,40.228,18.01,40.228,40.228l0,0c0,22.218-18.01,40.227-40.228,40.227
		h-18.462v-80.455H377.92z"/>
	<rect x="221.329" y="282.194" style="fill:#F4C49D;" width="69.336" height="78.598"/>
</g>
<path style="opacity:0.15;fill:#333333;enable-background:new    ;" d="M221.33,333.866c11.124,2.691,22.731,4.127,34.67,4.127
	c11.939,0,23.546-1.437,34.67-4.127v-51.672h-69.34L221.33,333.866L221.33,333.866z"/>
<path style="fill:#FCCDA2;" d="M130.548,125.452v65.087c0,69.285,56.167,125.452,125.452,125.452l0,0
	c69.285,0,125.452-56.167,125.452-125.452v-65.087c0-34.643-62.724-73.965-125.45-73.965
	C193.274,51.486,130.548,90.809,130.548,125.452z"/>
<path style="opacity:0.1;fill:#333333;enable-background:new    ;" d="M153.649,190.54v-65.087
	c0-32.514,55.253-69.148,113.903-73.528c-3.84-0.287-7.695-0.437-11.55-0.437c-62.727,0-125.453,39.322-125.453,73.965v65.087
	c0,69.285,56.167,125.452,125.452,125.452l0,0c3.895,0,7.746-0.187,11.55-0.535C203.681,309.626,153.649,255.93,153.649,190.54z"/>
<path style="fill:#293133;" d="M256,0L256,0c-69.285,0-125.452,56.167-125.452,125.452v22.547
	C232.813,129.742,256,63.178,256,63.178s23.186,66.564,125.452,84.821v-22.547C381.452,56.167,325.285,0,256,0z"/>
<path style="fill:#1C2223;" d="M153.649,125.452c0-65.39,50.032-119.085,113.902-124.918C263.745,0.187,259.895,0,256,0l0,0
	c-69.285,0-125.452,56.167-125.452,125.451v22.546c8.201-1.464,15.888-3.242,23.101-5.268V125.452z"/>
<g>
	<circle style="fill:#293133;" cx="197.183" cy="170.881" r="16.241"/>
	<circle style="fill:#293133;" cx="314.822" cy="170.881" r="16.241"/>
</g>
<path style="fill:#224973;" d="M323.561,349.791H188.439c-52.239,0-94.586,42.347-94.586,94.586v67.622h324.294v-67.622
	C418.148,392.139,375.799,349.791,323.561,349.791z"/>
<g>
	<path style="fill:#FFF9F2;" d="M152.542,356.862c-34.432,14.139-58.688,47.987-58.688,87.516V512h58.688V356.862z"/>
	<path style="fill:#FFF9F2;" d="M359.458,356.862c34.432,14.139,58.688,47.987,58.688,87.516V512h-58.688V356.862z"/>
	<path style="fill:#FFF9F2;" d="M256.003,466.107c0,0,55.177-77.436,82.087-115.204c-4.737-0.73-9.589-1.112-14.53-1.112H188.439
		c-4.939,0-9.788,0.382-14.524,1.111L256.003,466.107z"/>
</g>
<polygon style="fill:#FF99AA;" points="264.112,349.791 276.992,367.389 264.112,389.895 247.888,389.895 235.008,367.389 
	247.888,349.791 "/>
<polygon style="fill:#FF8095;" points="275.528,438.696 264.112,389.895 247.888,389.895 236.472,438.696 256.003,466.107 "/>
<path style="fill:#293133;" d="M256.004,252.968c-18.655,0-36.092-4.517-46.647-12.084c-3.703-2.654-4.553-7.809-1.899-11.512
	c2.656-3.705,7.81-4.552,11.513-1.899c7.738,5.548,21.929,8.994,37.033,8.994c15.099,0,29.286-3.444,37.027-8.99
	c3.701-2.652,8.858-1.803,11.511,1.903c2.653,3.704,1.802,8.858-1.902,11.512C292.084,248.454,274.65,252.968,256.004,252.968z"/>
<g>
</g>
<g>
</g>
<g>
</g>
<g>
</g>
<g>
</g>
<g>
</g>
<g>
</g>
<g>
</g>
<g>
</g>
<g>
</g>
<g>
</g>
<g>
</g>
<g>
</g>
<g>
</g>
<g>
</g>
</svg>
